<svg width="91" height="52" viewBox="0 0 91 52" fill="none" xmlns="http://www.w3.org/2000/svg">
<path d="M63.8439 0.968695C63.2508 0.996659 62.6793 1.19996 62.2018 1.55287C61.7244 1.90578 61.3623 2.39243 61.1616 2.9512C60.9608 3.50998 60.9304 4.11575 61.0741 4.69184C61.2178 5.26793 61.5292 5.78843 61.9689 6.18745L80.2814 22.9999H4.00011C3.89603 22.9949 3.79168 22.9949 3.68761 22.9999C2.11662 23.0814 0.762035 24.5852 0.843856 26.1562C0.925677 27.7271 2.42915 29.082 4.00011 28.9999H80.2814L61.9689 45.7812C61.6567 46.0416 61.4007 46.3627 61.2165 46.7251C61.0322 47.0875 60.9235 47.4835 60.897 47.8891C60.8705 48.2948 60.9266 48.7016 61.0621 49.0849C61.1976 49.4681 61.4095 49.8199 61.6851 50.1188C61.9606 50.4176 62.294 50.6574 62.6651 50.8235C63.0361 50.9896 63.437 51.0785 63.8435 51.0849C64.2499 51.0914 64.6535 51.0151 65.0296 50.8608C65.4057 50.7066 65.7465 50.4775 66.0314 50.1874L90.0314 28.1874C90.3352 27.9065 90.5777 27.5658 90.7435 27.1866C90.9094 26.8075 90.995 26.3981 90.995 25.9843C90.995 25.5705 90.9094 25.1611 90.7435 24.782C90.5777 24.4029 90.3352 24.0621 90.0314 23.7812L66.0314 1.7812C65.7395 1.50652 65.3955 1.29311 65.0198 1.15356C64.6441 1.01401 64.2443 0.951154 63.8439 0.968695V0.968695Z" fill="white"/>
</svg>
